<svg width="14" height="14" viewBox="0 0 14 14" fill="none" xmlns="http://www.w3.org/2000/svg">
<path d="M13.4531 9.625C13.7552 9.625 14 9.38016 14 9.07812V3.28125C14 2.07506 13.0187 1.09375 11.8125 1.09375H11.1016V0.546875C11.1016 0.244836 10.8567 0 10.5547 0C10.2526 0 10.0078 0.244836 10.0078 0.546875V1.09375H7.51953V0.546875C7.51953 0.244836 7.2747 0 6.97266 0C6.67062 0 6.42578 0.244836 6.42578 0.546875V1.09375H3.96484V0.546875C3.96484 0.244836 3.72001 0 3.41797 0C3.11593 0 2.87109 0.244836 2.87109 0.546875V1.09375H2.1875C0.981313 1.09375 0 2.07506 0 3.28125V11.8125C0 13.0187 0.981313 14 2.1875 14H11.8125C13.0187 14 14 13.0187 14 11.8125C14 11.5105 13.7552 11.2656 13.4531 11.2656C13.1511 11.2656 12.9062 11.5105 12.9062 11.8125C12.9062 12.4156 12.4156 12.9062 11.8125 12.9062H2.1875C1.58441 12.9062 1.09375 12.4156 1.09375 11.8125V3.28125C1.09375 2.67816 1.58441 2.1875 2.1875 2.1875H2.87109V2.73438C2.87109 3.03641 3.11593 3.28125 3.41797 3.28125C3.72001 3.28125 3.96484 3.03641 3.96484 2.73438V2.1875H6.42578V2.73438C6.42578 3.03641 6.67062 3.28125 6.97266 3.28125C7.2747 3.28125 7.51953 3.03641 7.51953 2.73438V2.1875H10.0078V2.73438C10.0078 3.03641 10.2526 3.28125 10.5547 3.28125C10.8567 3.28125 11.1016 3.03641 11.1016 2.73438V2.1875H11.8125C12.4156 2.1875 12.9062 2.67816 12.9062 3.28125V9.07812C12.9062 9.38016 13.1511 9.625 13.4531 9.625Z" fill="#4D46FA"/>
</svg>
