<svg width="6" height="14" viewBox="0 0 6 14" fill="none" xmlns="http://www.w3.org/2000/svg">
<path d="M5.21077 0C4.98433 0 4.80061 0.183609 4.80061 0.410156V3.23148H4.27072V0.410156C4.27072 0.183609 4.08711 0 3.86057 0C3.63412 0 3.45041 0.183609 3.45041 0.410156V3.23148H2.92052V0.410156C2.92052 0.183609 2.73691 0 2.51036 0C2.28381 0 2.1002 0.183609 2.1002 0.410156V3.23148H1.57031V0.410156C1.57031 0.183609 1.3867 0 1.16016 0C0.933609 0 0.75 0.183609 0.75 0.410156V5.00519C0.75 5.61903 1.24934 6.11838 1.86319 6.11838H2.05534V12.8699C2.05534 13.4931 2.56227 14 3.18552 14C3.80865 14 4.31558 13.4931 4.31558 12.8699V6.11838H4.50774C5.12158 6.11838 5.62093 5.61903 5.62093 5.00519V0.410156C5.62093 0.183609 5.43732 0 5.21077 0ZM4.50774 5.29807H3.90543C3.67899 5.29807 3.49527 5.48167 3.49527 5.70822V12.8699C3.49527 13.0407 3.35631 13.1797 3.18552 13.1797C3.01462 13.1797 2.87566 13.0407 2.87566 12.8699V5.70822C2.87566 5.48167 2.69205 5.29807 2.4655 5.29807H1.86319C1.70169 5.29807 1.57031 5.16669 1.57031 5.00519V4.05179H4.80072V5.00519C4.80061 5.16669 4.66924 5.29807 4.50774 5.29807Z" fill="black"/>
</svg>
